<?xml version="1.0" standalone="no"?><!DOCTYPE svg PUBLIC "-//W3C//DTD SVG 1.1//EN" "http://www.w3.org/Graphics/SVG/1.1/DTD/svg11.dtd"><svg t="1628647804533" class="icon" viewBox="0 0 1024 1024" version="1.1" xmlns="http://www.w3.org/2000/svg" p-id="6574" xmlns:xlink="http://www.w3.org/1999/xlink" width="64" height="64"><defs><style type="text/css"></style></defs><path d="M259.469005 339.165061h424.539887c18.758547 0 33.964552-15.206305 33.964552-33.964552 0-18.757945-15.206305-33.964552-33.964552-33.964551H259.469005c-18.757945 0-33.964552 15.206606-33.964551 33.964551 0 18.758246 15.206606 33.964552 33.964551 33.964552zM551.553312 495.396279c0-18.760655-15.200887-33.964552-33.964552-33.964552H259.469005c-18.757945 0-33.964552 15.203897-33.964551 33.964552 0 18.758246 15.206606 33.964552 33.964551 33.964551h258.119755c18.763665 0 33.964552-15.206606 33.964552-33.964551z" fill="#3E3A39" p-id="6575"></path><path d="M121.47855 775.472201V200.577649c0-41.201492 33.518715-74.717498 74.719907-74.717499H747.274323c41.20089 0 74.719906 33.516006 74.719907 74.717499v190.313475h67.923985V200.577649c0-78.653864-63.992737-142.646902-142.643892-142.646903H196.198457c-78.653563 0-142.644193 63.993039-142.644194 142.646903v574.894552c0 78.661691 63.99063 142.644494 142.644194 142.644495h191.090151v-67.923986H196.198457c-41.201191 0-74.719906-33.524134-74.719907-74.720509z" fill="#3E3A39" p-id="6576"></path><path d="M806.125642 750.136286c0-20.295645-7.182152-37.62607-21.542241-51.988266-14.365207-14.362497-31.694127-21.542542-51.992481-21.542542s-37.627274 7.180948-51.987062 21.542542c-14.364906 14.360691-21.544649 31.692622-21.544649 51.989471 0 20.297451 7.180045 37.62878 21.544649 51.988868 14.359788 14.362497 31.689009 21.542241 51.987062 21.542241s37.627274-7.177335 51.992481-21.542241c14.360089-14.360089 21.542241-31.691418 21.542241-51.990073z m147.061918-31.307595v63.766659c0 5.535477-2.971842 9.574195-8.044022 10.339432l-53.137327 8.043721-11.203109 26.135471s27.426018 35.506466 30.733517 39.638807c3.310509 4.132943 3.563079 9.569078 0.289297 13.787816-3.274083 4.215428-42.611251 43.852127-47.206889 47.544954-4.595939 3.695235-11.541174 4.536032-15.694889 1.285731l-39.639108-31.022813-26.137879 10.917123s-6.99009 48.060029-8.330308 53.420904c-1.340219 5.363283-5.607726 8.044022-10.339132 8.044022H700.709849c-5.503868 0-9.660292-4.153414-10.339433-8.616294l-8.044022-52.85104-25.849184-10.628128s-35.933337 27.280617-40.500075 30.733818c-4.564631 3.453502-10.87257 2.59705-14.360089-0.574982-3.489927-3.169322-44.033954-43.977058-47.394134-48.252692-3.362287-4.278645-2.586815-9.191577 0.286287-13.214642s30.160943-39.350413 30.160943-39.350413l-11.77809-28.435999s-46.491021-6.526793-52.562345-7.755026c-6.074033-1.228233-8.330309-5.402418-8.330309-10.341841v-63.765454c0-5.364789 2.451649-9.541683 7.755026-10.340637l53.423914-8.042516 11.2004-26.424166s-27.426018-35.61815-30.733818-39.637903c-3.30509-4.020355-3.971286-9.551618-0.285985-13.499724 3.117544-3.338806 46.66773-44.781129 50.711868-48.358658 4.041428-3.57783 8.257458-3.235551 12.192017-0.184536 3.93456 3.051617 39.639108 30.735323 39.639108 30.735323l26.137878-10.915619s5.839525-43.849719 8.327901-53.425118c1.342627-5.362079 4.7877-8.042517 10.341841-8.042517h63.765153c4.811482 0 9.48569 2.996527 10.339432 8.617498l8.041012 52.85104 25.851893 10.628128s35.988125-27.454617 40.789071-30.735022c4.798838-3.280104 10.810255-2.731313 14.073803 0.28719 3.260537 3.018804 44.206448 44.49424 47.394133 48.828276 3.187987 4.33524 2.292701 9.402303-0.288996 12.925947-2.581396 3.523643-30.158836 39.350413-30.158836 39.350413l11.778392 28.149411s46.831796 6.992799 52.562345 8.042818c5.728442 1.050922 8.33061 3.844248 8.33061 10.341238 0 6.496689 0 0 0 0z" fill="#3E3A39" p-id="6577"></path></svg>