<?xml version="1.0" standalone="no"?><!DOCTYPE svg PUBLIC "-//W3C//DTD SVG 1.1//EN" "http://www.w3.org/Graphics/SVG/1.1/DTD/svg11.dtd"><svg t="1628647727570" class="icon" viewBox="0 0 1024 1024" version="1.1" xmlns="http://www.w3.org/2000/svg" p-id="4905" xmlns:xlink="http://www.w3.org/1999/xlink" width="64" height="64"><defs><style type="text/css"></style></defs><path d="M915.1232 419.6096c0.1536-4.224-1.152-8.0384-4.1472-11.1872-0.9472-2.8928-2.5088-5.632-5.1456-7.4752L524.8768 130.8416c-2.56-1.8432-5.5552-2.7648-8.704-2.8672L299.776 123.6736c-6.8608-0.128-13.0048 4.1984-15.1552 10.7264-2.1504 6.5024 0.2048 13.5936 5.76 17.536l98.8928 70.0928-47.2064 34.1248c-1.6896 0.4864-3.4048 1.2288-4.9408 2.2784l-207.744 149.8112c-4.0448 2.9184-6.4512 7.7056-6.4 12.7488l0 0.2048-1.0496 0.5376 0 263.2192 6.656 12.6976 380.9024 270.1056 0.64-0.3584c0.6912 0.5376 1.3056 1.1008 2.048 1.5616 2.304 1.152 4.7104 1.6896 7.1936 1.6896 3.1488 0 6.2976-0.9472 9.0112-2.8928l380.9024-270.0544c4.1984-2.944 6.6048-7.7056 6.6048-12.8l0-263.168C915.8656 420.9152 915.2256 420.3776 915.1232 419.6096M349.7216 155.776l160.9984 3.2512 335.744 238.0544-160.9984-3.1744L349.7216 155.776zM502.8864 924.9024 153.1136 676.8384l0-224.9472 349.7472 247.936L502.8608 924.9024zM519.3728 671.8464 165.2736 420.736l169.9584-122.5728 354.0992 251.136L519.3728 671.8464zM884.6848 676.8384l-349.696 247.9616 0-224.9472 349.696-247.9616L884.6848 676.8384zM453.5296 716.7488 186.9312 527.6928l0 121.9072 266.5984 189.056L453.5296 716.7488z" p-id="4906"></path></svg>